<?xml version="1.0" standalone="no"?>
<!DOCTYPE svg PUBLIC "-//W3C//DTD SVG 20010904//EN"
 "http://www.w3.org/TR/2001/REC-SVG-20010904/DTD/svg10.dtd">
<svg version="1.0" xmlns="http://www.w3.org/2000/svg"
 width="501.000000pt" height="501.000000pt" viewBox="0 0 501.000000 501.000000"
 preserveAspectRatio="xMidYMid meet">

<g transform="translate(0.000000,501.000000) scale(0.100000,-0.100000)"
fill="#000000" stroke="none">
<path d="M990 4736 c-308 -40 -654 -137 -893 -251 -87 -42 -87 -40 -87 -344
l0 -259 26 -31 c39 -46 74 -42 218 28 385 187 774 265 1156 232 312 -27 424
-65 874 -291 379 -191 490 -234 689 -270 382 -69 787 -40 1146 81 47 16 90 29
96 29 6 0 37 -46 69 -102 33 -57 68 -111 80 -120 31 -26 97 -23 123 5 19 19
141 238 313 562 29 55 87 161 127 235 81 147 90 172 74 212 -23 62 -13 60
-594 75 -576 14 -575 14 -602 -38 -24 -45 -18 -68 45 -179 68 -121 74 -108
-67 -137 -120 -25 -513 -25 -653 0 -199 34 -310 76 -532 200 -385 215 -575
289 -887 344 -123 21 -183 26 -381 29 -158 2 -270 -1 -340 -10z m590 -196
c268 -34 438 -90 740 -244 451 -229 486 -246 575 -271 328 -94 748 -97 1075
-9 198 54 218 88 134 241 l-45 83 213 -5 c117 -3 272 -8 344 -11 l132 -6 -42
-77 c-199 -371 -282 -521 -287 -521 -3 0 -21 28 -40 61 -61 109 -92 119 -229
68 -329 -120 -656 -163 -978 -129 -263 28 -414 77 -712 229 -391 199 -452 228
-561 265 -221 73 -450 102 -748 93 -325 -9 -595 -74 -928 -224 -10 -4 -13 23
-13 116 l0 122 48 20 c219 95 569 184 812 208 111 11 389 6 510 -9z"/>
<path d="M795 3781 c-135 -22 -287 -86 -310 -131 -29 -56 -12 -110 43 -136 34
-16 37 -16 86 6 141 62 253 81 358 61 35 -7 116 -37 180 -67 150 -70 244 -94
365 -94 149 0 345 61 395 123 26 33 23 93 -6 122 -40 40 -67 41 -158 2 -193
-82 -314 -75 -527 32 -136 69 -304 101 -426 82z"/>
<path d="M1219 3156 c-46 -27 -50 -53 -47 -320 l3 -248 27 -23 c23 -19 42 -24
125 -29 148 -10 322 -34 404 -57 154 -42 186 -56 684 -308 88 -45 173 -81 188
-81 32 0 66 16 84 39 17 22 16 82 -2 108 -18 26 -577 314 -713 368 -147 58
-304 92 -559 121 l-43 5 0 120 0 119 58 0 c32 0 96 -5 142 -10 306 -38 563
-130 895 -320 305 -174 480 -231 805 -261 150 -14 400 -6 525 16 145 25 301
74 330 103 37 36 33 80 -14 166 -22 39 -40 75 -40 81 -1 10 335 8 556 -4 l121
-6 -161 -297 c-89 -164 -165 -298 -169 -298 -3 0 -23 29 -43 65 -61 110 -86
115 -260 50 -181 -67 -466 -125 -616 -125 -84 0 -129 -35 -129 -100 0 -78 48
-105 169 -95 203 15 377 50 569 112 61 20 114 34 116 32 1 -2 31 -53 66 -113
51 -88 70 -111 97 -123 54 -22 92 -4 130 60 25 42 316 578 463 853 16 31 30
65 30 76 0 28 -27 76 -50 88 -13 7 -218 16 -553 25 -581 15 -580 15 -606 -41
-19 -43 -13 -66 48 -174 40 -71 55 -107 48 -112 -68 -38 -478 -62 -678 -39
-255 30 -375 72 -664 236 -422 239 -744 336 -1165 351 -117 4 -150 2 -171 -10z"/>
<path d="M850 2169 c-90 -24 -196 -75 -216 -103 -21 -30 -18 -89 6 -119 31
-39 77 -44 136 -14 95 47 154 62 254 62 108 -1 134 -8 277 -76 229 -109 402
-123 610 -47 147 53 198 125 138 196 -38 45 -69 48 -148 12 -185 -84 -319 -79
-523 21 -57 27 -138 58 -180 69 -103 27 -252 26 -354 -1z"/>
<path d="M2956 2119 c-53 -63 -21 -145 61 -156 37 -5 45 -2 73 25 64 64 25
162 -65 162 -36 0 -48 -5 -69 -31z"/>
<path d="M1110 1594 c-19 -2 -78 -9 -130 -15 -256 -29 -622 -131 -871 -242
-101 -45 -99 -39 -99 -339 0 -281 4 -303 55 -326 40 -18 50 -16 164 42 313
159 598 233 931 243 294 9 529 -24 730 -101 47 -19 231 -108 410 -199 346
-175 454 -218 650 -256 236 -45 557 -52 782 -17 114 18 301 64 407 100 41 14
77 23 81 21 4 -3 33 -48 65 -102 72 -122 80 -131 120 -139 56 -10 85 14 142
118 220 403 453 841 459 863 9 35 -13 83 -46 100 -21 11 -125 16 -471 25 -666
15 -634 16 -671 -20 -26 -27 -30 -36 -25 -69 2 -21 30 -81 60 -132 31 -52 53
-97 49 -101 -28 -29 -350 -62 -512 -53 -357 20 -488 56 -757 206 -528 295
-819 383 -1298 393 -104 2 -206 2 -225 0z m535 -218 c281 -45 488 -122 798
-295 391 -218 557 -266 952 -278 262 -8 462 17 650 82 120 42 134 91 61 215
l-44 75 147 2 c80 2 235 0 343 -5 l197 -7 -161 -297 c-89 -164 -165 -298 -169
-298 -4 0 -24 29 -43 65 -61 108 -85 114 -222 61 -286 -110 -600 -158 -897
-137 -309 23 -481 71 -742 206 -510 266 -617 310 -851 354 -448 85 -931 31
-1347 -150 -50 -21 -94 -39 -99 -39 -4 0 -8 53 -8 119 l0 119 52 22 c181 78
500 163 723 194 143 20 516 15 660 -8z"/>
</g>
</svg>
