<?xml version="1.0" standalone="no"?>
<!DOCTYPE svg PUBLIC "-//W3C//DTD SVG 20010904//EN"
 "http://www.w3.org/TR/2001/REC-SVG-20010904/DTD/svg10.dtd">
<svg version="1.0" xmlns="http://www.w3.org/2000/svg"
 width="501.000000pt" height="501.000000pt" viewBox="0 0 501.000000 501.000000"
 preserveAspectRatio="xMidYMid meet">

<g transform="translate(0.000000,501.000000) scale(0.100000,-0.100000)"
fill="#000000" stroke="none">
<path d="M126 4660 c-37 -12 -85 -56 -102 -97 -11 -25 -14 -104 -14 -360 0
-372 0 -373 69 -373 26 0 44 7 57 21 18 20 19 43 22 345 l3 324 2347 -2 2347
-3 0 -1805 0 -1805 -477 -3 -478 -2 0 75 0 75 364 0 c374 0 417 4 436 40 6 11
10 178 10 422 0 455 1 448 -69 448 -20 0 -46 -6 -57 -14 -18 -14 -19 -31 -22
-380 l-3 -366 -329 0 -330 0 0 159 0 158 69 5 c128 9 165 53 167 193 1 50 4
100 8 110 3 11 29 43 57 70 59 57 79 96 79 157 0 51 -19 85 -89 155 -28 29
-51 58 -52 65 -1 7 -2 49 -3 93 -2 88 -18 130 -62 164 -37 29 -100 44 -159 38
-63 -6 -104 10 -135 53 -35 49 -106 90 -156 90 -62 0 -86 -12 -159 -80 -35
-33 -70 -60 -77 -61 -7 0 -49 -2 -93 -3 -89 -2 -132 -20 -169 -69 -17 -23 -22
-47 -26 -132 l-5 -104 -57 -58 c-117 -119 -116 -196 2 -319 l60 -62 0 -89 c0
-142 34 -187 159 -206 l71 -11 0 -158 0 -158 -1435 0 -1435 0 0 1510 0 1510
2050 0 2050 0 0 -969 c0 -573 4 -980 9 -994 19 -49 106 -55 130 -8 8 13 11
342 11 1046 l0 1026 -25 24 -24 25 -2149 0 -2149 0 -27 -21 -26 -20 0 -1609
c0 -885 3 -1616 6 -1625 18 -47 -34 -45 1539 -45 l1475 0 0 -75 0 -75 -1582 2
-1583 3 -5 1320 c-3 726 -9 1328 -14 1338 -17 35 -90 39 -118 5 -17 -19 -18
-98 -18 -1352 l0 -1331 23 -39 c28 -50 64 -76 118 -87 24 -4 749 -8 1612 -9
l1567 0 0 -159 c0 -164 9 -214 40 -231 31 -17 51 -12 150 36 l96 45 98 -45
c54 -25 107 -46 118 -46 10 0 30 11 43 25 25 24 25 27 25 199 l0 175 493 3
493 3 43 28 c27 18 50 44 62 70 18 41 19 96 19 1853 0 1324 -3 1820 -11 1845
-16 47 -66 97 -109 109 -44 12 -4722 12 -4764 0z m3552 -2145 c72 -76 100 -88
212 -95 l95 -5 5 -95 c7 -112 18 -137 96 -214 62 -63 62 -73 -2 -122 -19 -15
-47 -48 -62 -73 -23 -39 -28 -61 -32 -141 l-5 -95 -105 -5 c-120 -6 -134 -12
-205 -96 -26 -30 -52 -54 -59 -54 -7 0 -36 27 -65 60 -29 33 -62 66 -74 72
-12 7 -69 15 -127 18 l-105 5 -5 101 c-4 88 -8 106 -32 141 -15 23 -45 56 -68
74 -22 18 -40 41 -40 51 0 10 22 40 48 66 79 77 86 93 92 207 l5 100 101 6
c116 6 130 12 211 96 29 29 56 53 61 53 4 0 31 -25 60 -55z m-167 -1101 c43
-52 142 -57 204 -10 l35 27 0 -446 0 -445 -51 26 c-63 32 -93 33 -146 5 -79
-40 -73 -73 -73 419 0 246 4 440 9 440 5 0 14 -7 22 -16z"/>
<path d="M3529 2316 c-129 -46 -209 -166 -196 -294 17 -158 148 -271 302 -259
257 20 359 334 163 501 -69 60 -185 82 -269 52z m182 -172 c117 -112 -19 -292
-164 -217 -59 30 -85 120 -53 182 42 80 151 98 217 35z"/>
<path d="M916 3739 c-33 -26 -36 -79 -6 -109 20 -20 33 -20 1310 -20 1277 0
1290 0 1310 20 20 20 27 74 12 96 -22 34 -40 34 -1325 34 -1274 0 -1274 0
-1301 -21z"/>
<path d="M910 3290 c-25 -25 -26 -71 -1 -101 l19 -24 1582 0 1582 0 19 24 c26
32 24 73 -4 99 l-23 22 -1577 0 c-1564 0 -1577 0 -1597 -20z"/>
<path d="M943 2863 c-50 -10 -70 -86 -33 -123 20 -20 33 -20 928 -20 900 0
908 0 930 20 27 26 28 70 3 101 l-19 24 -894 1 c-491 1 -903 -1 -915 -3z"/>
<path d="M1103 2395 c-38 -16 -39 -18 -53 -200 -17 -203 -47 -359 -105 -537
-33 -100 -30 -131 16 -147 42 -15 79 3 101 49 9 19 32 88 51 152 l33 117 28
-65 c62 -142 182 -181 291 -94 l37 30 30 -25 c54 -45 91 -50 408 -47 277 2
295 3 314 21 24 25 25 74 1 101 -17 19 -30 20 -299 20 -248 0 -285 2 -316 18
-19 9 -40 28 -46 42 -38 85 -38 85 -78 88 -45 4 -60 -7 -91 -67 -31 -62 -61
-88 -83 -75 -43 27 -79 160 -117 424 -14 96 -31 180 -38 186 -21 20 -51 24
-84 9z"/>
</g>
</svg>
