<svg width="14" height="14" viewBox="0 0 14 14" fill="none" xmlns="http://www.w3.org/2000/svg">
<path fill-rule="evenodd" clip-rule="evenodd" d="M9.28384 3.45207C9.28384 4.72308 8.26133 5.75345 7 5.75345C5.73866 5.75345 4.71615 4.72308 4.71615 3.45207C4.71615 2.18105 5.73866 1.15069 7 1.15069C8.26133 1.15069 9.28384 2.18105 9.28384 3.45207ZM10.4258 3.45207C10.4258 5.35859 8.892 6.90413 7 6.90413C5.108 6.90413 3.57423 5.35859 3.57423 3.45207C3.57423 1.54554 5.108 0 7 0C8.892 0 10.4258 1.54554 10.4258 3.45207ZM1.07665 14C1.93911 11.5411 4.26629 9.78086 7 9.78086C9.73371 9.78086 12.0609 11.5411 12.9233 14L14 13.6165C12.9813 10.7123 10.2327 8.63017 7 8.63017C3.7673 8.63017 1.01868 10.7123 0 13.6165L1.07665 14Z" fill="#837D7D"/>
</svg>
