<?xml version="1.0" standalone="no"?>
<!DOCTYPE svg PUBLIC "-//W3C//DTD SVG 20010904//EN"
 "http://www.w3.org/TR/2001/REC-SVG-20010904/DTD/svg10.dtd">
<svg version="1.0" xmlns="http://www.w3.org/2000/svg"
 width="501.000000pt" height="501.000000pt" viewBox="0 0 501.000000 501.000000"
 preserveAspectRatio="xMidYMid meet">

<g transform="translate(0.000000,501.000000) scale(0.100000,-0.100000)"
fill="#000000" stroke="none">
<path d="M3151 4923 c-11 -10 -38 -62 -58 -117 l-38 -99 -68 -22 c-38 -13
-102 -39 -142 -59 l-74 -35 -101 46 c-56 24 -108 42 -117 39 -9 -4 -29 6 -49
23 -46 41 -151 73 -239 73 -136 0 -251 -56 -295 -142 -13 -25 -30 -42 -51 -49
-58 -20 -195 -119 -257 -186 -132 -140 -206 -304 -227 -500 -6 -56 -10 -62
-47 -88 -72 -51 -96 -143 -57 -224 25 -52 59 -81 115 -96 42 -11 43 -13 70
-86 56 -160 159 -295 297 -390 27 -18 47 -34 45 -36 -2 -2 -46 -19 -99 -38
-186 -68 -357 -170 -490 -294 l-36 -34 -58 25 c-31 15 -68 26 -81 26 -13 0
-171 -64 -351 -141 -180 -78 -359 -155 -398 -171 -38 -17 -80 -40 -93 -51
l-23 -22 4 -440 3 -440 27 -92 c53 -186 141 -335 277 -470 137 -137 287 -223
463 -268 85 -21 93 -22 156 -8 92 21 219 73 309 129 109 66 283 244 342 348
90 161 134 304 147 478 l6 88 228 0 229 0 2 -694 3 -694 30 -44 c18 -25 49
-52 75 -66 l44 -22 1008 0 c888 0 1013 2 1046 15 47 20 79 50 103 97 19 37 19
73 17 1250 l-3 1213 -23 33 c-42 58 -87 85 -155 91 l-62 6 -32 67 -33 67 36
75 c20 41 46 105 58 142 l23 67 99 38 c54 21 107 48 117 60 15 19 17 46 17
225 0 243 4 234 -139 291 l-94 38 -27 77 c-16 42 -42 104 -59 138 l-31 61 46
105 c32 73 43 111 38 127 -10 30 -269 293 -304 307 -25 10 -40 7 -134 -34
l-105 -46 -68 34 c-37 18 -97 44 -133 56 -36 13 -70 28 -76 34 -6 6 -26 51
-44 99 -49 130 -41 127 -285 127 -179 0 -205 -2 -224 -17z m388 -233 c19 -49
41 -96 50 -104 9 -8 54 -27 101 -42 47 -14 129 -49 182 -76 109 -55 113 -55
218 -3 85 42 80 44 174 -49 47 -47 86 -90 86 -95 0 -6 -16 -44 -35 -87 -19
-42 -35 -89 -35 -104 0 -15 20 -67 44 -116 24 -49 56 -127 71 -174 14 -47 33
-92 41 -102 9 -9 56 -31 105 -49 l90 -34 -3 -128 -3 -129 -90 -34 c-49 -19
-96 -42 -102 -51 -7 -9 -24 -54 -38 -99 -14 -45 -45 -123 -70 -172 -25 -49
-45 -103 -45 -118 0 -16 11 -52 24 -81 13 -28 22 -54 18 -57 -3 -3 -42 -6 -87
-6 l-83 0 -4 60 c-3 45 -10 66 -28 85 -23 24 -28 25 -146 25 -98 0 -124 3
-135 16 -11 13 -8 19 18 40 82 64 179 231 209 361 25 107 15 296 -20 391 -89
240 -285 413 -523 463 -133 27 -335 4 -443 -51 -23 -12 -43 -20 -44 -18 -2 2
-18 30 -36 63 -39 71 -79 124 -133 181 l-39 42 43 25 c49 29 190 87 211 87 7
0 31 9 54 19 35 16 43 26 63 80 12 34 29 78 37 97 l14 34 128 0 128 0 33 -90z
m-1192 -85 c28 -8 56 -21 62 -29 10 -11 6 -57 -13 -204 -33 -244 -33 -265 0
-291 50 -39 106 -18 123 47 5 20 17 97 26 169 l18 133 50 -28 c28 -15 85 -61
128 -104 62 -61 86 -95 123 -170 42 -84 75 -197 76 -255 0 -22 -3 -23 -105
-23 l-105 0 0 187 c0 178 -1 188 -22 210 -30 33 -80 31 -107 -3 -20 -25 -21
-40 -21 -210 l0 -184 -315 0 -315 0 0 184 c0 170 -1 185 -21 210 -26 33 -73
35 -106 4 -22 -21 -23 -26 -23 -210 l0 -188 -105 0 -105 0 0 28 c0 41 35 170
61 228 34 74 102 166 164 222 66 58 155 110 155 90 0 -7 9 -80 20 -163 18
-136 22 -152 45 -172 32 -29 65 -29 99 -2 33 26 33 41 1 288 -20 149 -23 196
-14 207 15 18 93 42 140 43 19 1 58 -6 86 -14z m1207 -559 c148 -53 248 -141
314 -276 105 -213 68 -460 -95 -624 -53 -53 -60 -57 -88 -50 -16 5 -64 9 -105
8 -88 0 -156 -29 -208 -88 -35 -40 -51 -43 -132 -21 -98 26 -181 74 -252 146
l-68 68 42 77 c22 42 49 101 58 132 17 53 19 56 64 69 79 23 136 100 136 183
-1 43 -36 106 -76 136 -22 15 -40 28 -41 29 -1 0 -6 34 -12 75 -6 49 -7 78 0
86 15 18 132 63 192 74 77 13 198 3 271 -24z m-510 -362 c9 -3 16 -15 16 -25
0 -18 -22 -19 -795 -19 -764 0 -795 1 -795 18 0 10 3 22 7 25 8 9 1546 9 1567
1z m-174 -216 c0 -25 -58 -134 -103 -194 -90 -119 -205 -192 -365 -234 -71
-18 -227 -13 -312 10 -161 45 -314 171 -389 321 -23 45 -41 88 -41 95 0 12 96
14 605 14 477 0 605 -3 605 -12z m118 -532 c39 -24 42 -29 42 -71 0 -25 -2
-45 -4 -45 -2 0 -41 20 -87 44 -46 25 -126 59 -177 77 -51 17 -90 34 -87 38 4
3 36 29 73 57 l67 51 65 -62 c36 -34 84 -74 108 -89z m672 -5 c14 -9 35 -37
47 -62 38 -74 50 -79 175 -79 l109 0 -3 -82 -3 -83 -400 0 -400 0 -3 83 -3 82
108 0 c125 0 142 7 174 76 41 87 127 115 199 65z m-1110 -95 c58 -13 119 -30
135 -37 29 -13 26 -14 -50 -19 -111 -7 -165 -41 -200 -122 -13 -32 -15 -102
-15 -468 l0 -430 -230 0 -230 0 0 254 c0 250 0 255 -22 280 -20 21 -176 93
-507 232 l-34 14 23 25 c27 28 131 99 213 144 127 70 329 134 476 151 122 14
321 3 441 -24z m478 -266 c2 -39 9 -61 24 -77 l21 -23 508 0 c279 0 515 3 524
6 25 10 45 58 45 109 l0 45 209 0 c206 0 210 0 225 -22 14 -20 16 -149 16
-1180 0 -1145 0 -1158 -20 -1178 -20 -20 -33 -20 -994 -20 -873 0 -976 2 -990
16 -14 14 -16 135 -16 1189 0 1108 1 1175 18 1184 10 7 95 10 222 8 l205 -2 3
-55z m-1570 -228 l343 -147 -3 -395 c-5 -441 -5 -444 -79 -599 -114 -241 -315
-411 -571 -486 l-56 -16 -96 32 c-296 98 -513 335 -586 642 -18 74 -20 118
-20 453 l0 371 348 150 c191 83 354 149 362 147 8 -3 169 -71 358 -152z"/>
<path d="M3563 2909 c-44 -16 -38 -90 7 -104 32 -10 70 20 70 54 0 42 -36 65
-77 50z"/>
<path d="M2998 2251 c-100 -20 -127 -74 -128 -257 0 -117 2 -135 23 -174 37
-70 66 -80 242 -80 132 0 154 2 183 20 63 39 72 67 72 233 0 157 -5 181 -52
224 -12 12 -43 26 -68 32 -50 12 -215 13 -272 2z m232 -256 l0 -105 -100 0
-100 0 0 105 0 105 100 0 100 0 0 -105z"/>
<path d="M3560 2150 c-12 -12 -20 -33 -20 -55 0 -22 8 -43 20 -55 19 -19 33
-20 308 -20 312 0 323 2 336 55 7 29 -15 79 -39 89 -9 3 -145 6 -301 6 -271 0
-285 -1 -304 -20z"/>
<path d="M3583 1970 c-47 -19 -58 -92 -20 -128 22 -21 33 -22 181 -22 153 0
157 1 181 25 32 31 32 66 1 102 l-24 28 -149 2 c-81 1 -158 -2 -170 -7z"/>
<path d="M2943 1619 c-57 -37 -73 -87 -73 -235 0 -115 3 -135 23 -174 38 -75
66 -85 244 -85 168 0 183 5 231 75 20 31 22 44 22 184 0 169 -9 197 -72 236
-29 18 -51 20 -188 20 -139 0 -158 -2 -187 -21z m287 -234 l0 -105 -100 0
-100 0 0 98 c0 54 3 102 7 105 3 4 48 7 100 7 l93 0 0 -105z"/>
<path d="M3560 1600 c-26 -26 -27 -83 -1 -109 30 -30 64 -33 343 -29 251 3
258 4 280 25 31 31 30 89 -1 114 -21 18 -45 19 -312 19 -276 0 -290 -1 -309
-20z"/>
<path d="M3584 1416 c-52 -23 -62 -91 -18 -125 24 -19 40 -21 181 -21 150 0
155 1 178 25 32 31 32 66 1 102 l-24 28 -144 2 c-105 2 -151 -1 -174 -11z"/>
<path d="M2950 1008 c-71 -49 -75 -62 -75 -238 0 -145 2 -161 21 -186 48 -65
61 -69 232 -69 171 0 194 6 237 63 18 24 20 45 23 187 3 154 2 162 -20 194
-42 61 -74 71 -239 71 -135 0 -149 -2 -179 -22z m280 -233 l0 -105 -100 0
-100 0 0 98 c0 54 3 102 7 105 3 4 48 7 100 7 l93 0 0 -105z"/>
<path d="M3590 943 c-56 -21 -70 -96 -24 -132 26 -20 39 -21 306 -21 l280 0
29 29 c16 16 29 39 29 51 0 12 -13 35 -29 51 l-29 29 -274 -1 c-150 0 -280 -3
-288 -6z"/>
<path d="M3562 730 c-28 -27 -30 -82 -3 -109 28 -28 69 -33 215 -29 126 3 128
3 152 31 31 36 31 71 -1 102 -24 24 -28 25 -183 25 -145 0 -160 -2 -180 -20z"/>
<path d="M1395 2044 c-16 -8 -119 -104 -227 -212 l-198 -197 -67 66 c-84 81
-110 98 -168 106 -89 12 -195 -60 -211 -142 -9 -51 2 -122 25 -153 11 -15 88
-95 173 -179 174 -172 197 -185 292 -163 49 12 64 25 334 294 179 178 290 296
302 322 62 127 -29 274 -169 274 -31 0 -69 -7 -86 -16z m103 -146 c7 -7 12
-20 12 -31 0 -23 -517 -547 -540 -547 -9 0 -80 65 -159 144 -129 130 -142 146
-131 165 6 12 19 21 28 21 10 0 58 -41 107 -91 90 -90 129 -119 161 -119 10 0
124 106 254 235 130 129 241 235 246 235 6 0 15 -5 22 -12z"/>
</g>
</svg>
