<?xml version="1.0" encoding="UTF-8"?>
<!DOCTYPE svg PUBLIC "-//W3C//DTD SVG 1.1//EN" "http://www.w3.org/Graphics/SVG/1.1/DTD/svg11.dtd">
<svg xmlns="http://www.w3.org/2000/svg" version="1.1" width="501px" height="501px" style="shape-rendering:geometricPrecision; text-rendering:geometricPrecision; image-rendering:optimizeQuality; fill-rule:evenodd; clip-rule:evenodd" xmlns:xlink="http://www.w3.org/1999/xlink">
<g><path style="opacity:0.944" fill="#000000" d="M 10.5,7.5 C 55.5012,7.33334 100.501,7.50001 145.5,8C 147.333,8.5 148.5,9.66667 149,11.5C 149.667,66.1667 149.667,120.833 149,175.5C 148.167,177.667 146.667,179.167 144.5,180C 125.17,180.5 105.836,180.667 86.5,180.5C 86.5,195.833 86.5,211.167 86.5,226.5C 138.167,226.5 189.833,226.5 241.5,226.5C 241.5,211.167 241.5,195.833 241.5,180.5C 222.164,180.667 202.83,180.5 183.5,180C 181.667,179.5 180.5,178.333 180,176.5C 179.085,170.056 179.419,163.723 181,157.5C 181.5,157 182,156.5 182.5,156C 185.833,155.333 189.167,155.333 192.5,156C 195.041,157.848 196.041,160.348 195.5,163.5C 231.833,163.5 268.167,163.5 304.5,163.5C 304.5,116.833 304.5,70.1667 304.5,23.5C 268.167,23.5 231.833,23.5 195.5,23.5C 195.667,47.169 195.5,70.8357 195,94.5C 190,99.8333 185,99.8333 180,94.5C 179.333,66.5 179.333,38.5 180,10.5C 180.833,9.66667 181.667,8.83333 182.5,8C 227.5,7.33333 272.5,7.33333 317.5,8C 318.333,8.83333 319.167,9.66667 320,10.5C 320.667,65.8333 320.667,121.167 320,176.5C 319.5,178.333 318.333,179.5 316.5,180C 297.17,180.5 277.836,180.667 258.5,180.5C 258.5,195.833 258.5,211.167 258.5,226.5C 310.167,226.5 361.833,226.5 413.5,226.5C 413.5,211.167 413.5,195.833 413.5,180.5C 394.164,180.667 374.83,180.5 355.5,180C 353.667,179.5 352.5,178.333 352,176.5C 351.333,121.167 351.333,65.8333 352,10.5C 352.833,9.66667 353.667,8.83333 354.5,8C 399.5,7.33333 444.5,7.33333 489.5,8C 490.333,8.83333 491.167,9.66667 492,10.5C 492.667,16.5 492.667,22.5 492,28.5C 491.167,29.3333 490.333,30.1667 489.5,31C 486.167,31.6667 482.833,31.6667 479.5,31C 476.959,29.1516 475.959,26.6516 476.5,23.5C 440.167,23.5 403.833,23.5 367.5,23.5C 367.5,70.1667 367.5,116.833 367.5,163.5C 403.833,163.5 440.167,163.5 476.5,163.5C 476.333,125.832 476.5,88.1652 477,50.5C 482,45.1667 487,45.1667 492,50.5C 492.667,92.5 492.667,134.5 492,176.5C 491.5,178.333 490.333,179.5 488.5,180C 469.17,180.5 449.836,180.667 430.5,180.5C 430.667,199.836 430.5,219.17 430,238.5C 429.5,240.333 428.333,241.5 426.5,242C 370.501,242.5 314.501,242.667 258.5,242.5C 258.333,258.503 258.5,274.503 259,290.5C 264.864,284.301 271.031,278.468 277.5,273C 289.571,272.434 292.738,277.601 287,288.5C 277.113,298.387 267.279,308.221 257.5,318C 252.5,321.333 247.5,321.333 242.5,318C 232.721,308.221 222.887,298.387 213,288.5C 207.231,277.513 210.398,272.346 222.5,273C 225.72,275.103 228.72,277.436 231.5,280C 234.297,283.799 237.464,287.299 241,290.5C 241.5,274.503 241.667,258.503 241.5,242.5C 185.499,242.667 129.499,242.5 73.5,242C 72.3333,241.5 71.5,240.667 71,239.5C 70.5,219.836 70.3334,200.169 70.5,180.5C 50.8305,180.667 31.1638,180.5 11.5,180C 10.5838,179.626 9.75044,179.126 9,178.5C 7.34948,148.586 7.01614,118.586 8,88.5C 8.83333,87.6667 9.66667,86.8333 10.5,86C 13.8333,85.3333 17.1667,85.3333 20.5,86C 22.3333,86.5 23.5,87.6667 24,89.5C 24.5,114.164 24.6666,138.831 24.5,163.5C 60.5,163.5 96.5,163.5 132.5,163.5C 132.5,116.833 132.5,70.1667 132.5,23.5C 96.5,23.5 60.5,23.5 24.5,23.5C 24.6666,37.8372 24.4999,52.1705 24,66.5C 18.6667,71.8333 13.3333,71.8333 8,66.5C 7.33333,47.8333 7.33333,29.1667 8,10.5C 9.04499,9.62656 9.87833,8.62656 10.5,7.5 Z"/></g>
<g><path style="opacity:0.893" fill="#000000" d="M 42.5,38.5 C 66.5023,38.3334 90.5023,38.5 114.5,39C 115.333,39.8333 116.167,40.6667 117,41.5C 117.667,44.8333 117.667,48.1667 117,51.5C 116.5,53.3333 115.333,54.5 113.5,55C 89.8333,55.6667 66.1667,55.6667 42.5,55C 39.3336,53.3343 38.0003,50.6677 38.5,47C 38.1339,43.2363 39.4673,40.403 42.5,38.5 Z"/></g>
<g><path style="opacity:0.894" fill="#000000" d="M 214.5,38.5 C 238.169,38.3334 261.836,38.5 285.5,39C 287.333,39.5 288.5,40.6667 289,42.5C 289.667,45.5 289.667,48.5 289,51.5C 288.5,53.3333 287.333,54.5 285.5,55C 261.833,55.6667 238.167,55.6667 214.5,55C 211.334,53.3343 210,50.6677 210.5,47C 210.134,43.2363 211.467,40.403 214.5,38.5 Z"/></g>
<g><path style="opacity:0.894" fill="#000000" d="M 386.5,38.5 C 410.169,38.3334 433.836,38.5 457.5,39C 459.333,39.5 460.5,40.6667 461,42.5C 461.667,45.5 461.667,48.5 461,51.5C 460.5,53.3333 459.333,54.5 457.5,55C 433.833,55.6667 410.167,55.6667 386.5,55C 383.334,53.3343 382,50.6677 382.5,47C 382.134,43.2363 383.467,40.403 386.5,38.5 Z"/></g>
<g><path style="opacity:0.892" fill="#000000" d="M 42.5,69.5 C 66.5023,69.3334 90.5023,69.5 114.5,70C 115.333,70.8333 116.167,71.6667 117,72.5C 117.667,76.1667 117.667,79.8333 117,83.5C 116.097,84.7014 114.931,85.5348 113.5,86C 89.8333,86.6667 66.1667,86.6667 42.5,86C 39.3336,84.3343 38.0003,81.6677 38.5,78C 38.1339,74.2363 39.4673,71.403 42.5,69.5 Z"/></g>
<g><path style="opacity:0.894" fill="#000000" d="M 214.5,69.5 C 238.169,69.3334 261.836,69.5 285.5,70C 287.333,70.5 288.5,71.6667 289,73.5C 289.667,76.5 289.667,79.5 289,82.5C 288.5,84.3333 287.333,85.5 285.5,86C 261.833,86.6667 238.167,86.6667 214.5,86C 211.334,84.3343 210,81.6677 210.5,78C 210.134,74.2363 211.467,71.403 214.5,69.5 Z"/></g>
<g><path style="opacity:0.894" fill="#000000" d="M 386.5,69.5 C 410.169,69.3334 433.836,69.5 457.5,70C 459.333,70.5 460.5,71.6667 461,73.5C 461.667,76.5 461.667,79.5 461,82.5C 460.5,84.3333 459.333,85.5 457.5,86C 433.833,86.6667 410.167,86.6667 386.5,86C 383.334,84.3343 382,81.6677 382.5,78C 382.134,74.2363 383.467,71.403 386.5,69.5 Z"/></g>
<g><path style="opacity:0.946" fill="#000000" d="M 41.5,101.5 C 65.8356,101.333 90.1689,101.5 114.5,102C 115.333,102.833 116.167,103.667 117,104.5C 117.667,107.833 117.667,111.167 117,114.5C 116.167,115.333 115.333,116.167 114.5,117C 90.5,117.667 66.5,117.667 42.5,117C 39.3336,115.334 38.0003,112.668 38.5,109C 38.1102,105.876 39.1102,103.376 41.5,101.5 Z"/></g>
<g><path style="opacity:0.947" fill="#000000" d="M 213.5,101.5 C 237.836,101.333 262.169,101.5 286.5,102C 287.333,102.833 288.167,103.667 289,104.5C 289.667,107.833 289.667,111.167 289,114.5C 288.167,115.333 287.333,116.167 286.5,117C 262.5,117.667 238.5,117.667 214.5,117C 211.334,115.334 210,112.668 210.5,109C 210.11,105.876 211.11,103.376 213.5,101.5 Z"/></g>
<g><path style="opacity:0.948" fill="#000000" d="M 385.5,101.5 C 409.836,101.333 434.169,101.5 458.5,102C 461.428,105.257 462.262,109.091 461,113.5C 460.5,115.333 459.333,116.5 457.5,117C 433.833,117.667 410.167,117.667 386.5,117C 383.334,115.334 382,112.668 382.5,109C 382.11,105.876 383.11,103.376 385.5,101.5 Z"/></g>
<g><path style="opacity:0.885" fill="#000000" d="M 183.5,111.5 C 186.187,111.336 188.854,111.503 191.5,112C 193.333,112.5 194.5,113.667 195,115.5C 195.667,123.167 195.667,130.833 195,138.5C 194.626,139.416 194.126,140.25 193.5,141C 189.833,141.667 186.167,141.667 182.5,141C 181.667,140.167 180.833,139.333 180,138.5C 179.333,130.833 179.333,123.167 180,115.5C 180.69,113.65 181.856,112.316 183.5,111.5 Z"/></g>
<g><path style="opacity:0.946" fill="#000000" d="M 41.5,132.5 C 65.8356,132.333 90.1689,132.5 114.5,133C 115.333,133.833 116.167,134.667 117,135.5C 117.667,138.833 117.667,142.167 117,145.5C 116.167,146.333 115.333,147.167 114.5,148C 90.5,148.667 66.5,148.667 42.5,148C 39.0987,146.68 37.7653,144.18 38.5,140.5C 38.0775,137.218 39.0775,134.552 41.5,132.5 Z"/></g>
<g><path style="opacity:0.946" fill="#000000" d="M 213.5,132.5 C 237.836,132.333 262.169,132.5 286.5,133C 287.333,133.833 288.167,134.667 289,135.5C 289.667,138.833 289.667,142.167 289,145.5C 288.167,146.333 287.333,147.167 286.5,148C 262.5,148.667 238.5,148.667 214.5,148C 211.099,146.68 209.765,144.18 210.5,140.5C 210.078,137.218 211.078,134.552 213.5,132.5 Z"/></g>
<g><path style="opacity:0.947" fill="#000000" d="M 385.5,132.5 C 409.836,132.333 434.169,132.5 458.5,133C 459.333,133.833 460.167,134.667 461,135.5C 461.667,138.833 461.667,142.167 461,145.5C 460.097,146.701 458.931,147.535 457.5,148C 433.833,148.667 410.167,148.667 386.5,148C 383.099,146.68 381.765,144.18 382.5,140.5C 382.078,137.218 383.078,134.552 385.5,132.5 Z"/></g>
<g><path style="opacity:0.904" fill="#000000" d="M 190.5,290.5 C 202.155,288.323 206.989,292.99 205,304.5C 204.167,305.333 203.333,306.167 202.5,307C 184.986,308.169 167.653,310.836 150.5,315C 146.056,316.389 141.723,318.056 137.5,320C 145.497,323.666 153.83,326.332 162.5,328C 216.765,336.524 271.098,337.19 325.5,330C 338.44,328.683 350.774,325.349 362.5,320C 358.495,317.578 354.162,315.911 349.5,315C 333.715,311.147 317.715,308.814 301.5,308C 295.905,305.646 294.072,301.479 296,295.5C 297.109,293.185 298.943,291.685 301.5,291C 324.497,291.266 346.831,295.266 368.5,303C 374.129,305.398 378.963,308.898 383,313.5C 383.991,365.25 383.657,416.916 382,468.5C 379.833,470.667 377.667,472.833 375.5,475C 357.95,482.579 339.617,487.245 320.5,489C 276.53,493.232 232.53,493.566 188.5,490C 179.79,489.205 176.957,484.705 180,476.5C 181.214,474.951 182.714,473.785 184.5,473C 229.157,477.611 273.823,477.278 318.5,472C 330.324,470.418 341.99,468.085 353.5,465C 358.05,463.932 362.217,462.098 366,459.5C 366.832,450.482 366.665,441.482 365.5,432.5C 348.235,437.934 330.568,441.434 312.5,443C 268.133,446.591 223.8,446.258 179.5,442C 164.191,440.256 149.191,437.089 134.5,432.5C 133.335,441.147 133.168,449.814 134,458.5C 142.849,462.784 152.015,466.284 161.5,469C 166.631,476.907 164.631,482.073 155.5,484.5C 144.879,482.237 134.546,479.071 124.5,475C 121.628,472.463 119.128,469.63 117,466.5C 116.333,415.833 116.333,365.167 117,314.5C 119.167,311 122,308.167 125.5,306C 131.277,303.112 137.277,300.779 143.5,299C 159.114,295.084 174.781,292.251 190.5,290.5 Z M 133.5,339.5 C 149.074,344.849 165.074,348.349 181.5,350C 227.167,353.333 272.833,353.333 318.5,350C 334.677,348.732 350.344,345.232 365.5,339.5C 366.833,348.167 366.833,356.833 365.5,365.5C 356.76,370.471 347.426,373.971 337.5,376C 334.64,379.681 333.807,383.848 335,388.5C 335.833,389.333 336.667,390.167 337.5,391C 347.182,392.314 356.515,391.147 365.5,387.5C 365.817,396.418 365.484,405.251 364.5,414C 353.043,419.198 341.043,422.532 328.5,424C 302.331,428.115 275.998,429.948 249.5,429.5C 218.905,430.109 188.571,427.609 158.5,422C 149.901,420.312 141.735,417.478 134,413.5C 133.333,404.5 133.333,395.5 134,386.5C 138.347,388.393 142.847,389.893 147.5,391C 192.843,398.855 238.51,401.521 284.5,399C 295.235,398.66 305.902,397.66 316.5,396C 323.156,390.618 323.156,385.285 316.5,380C 275.189,383.27 233.856,383.27 192.5,380C 179.731,378.65 167.064,376.65 154.5,374C 147.462,372.378 140.795,369.878 134.5,366.5C 133.502,357.525 133.168,348.525 133.5,339.5 Z"/></g>
</svg>
