<?xml version="1.0" standalone="no"?>
<!DOCTYPE svg PUBLIC "-//W3C//DTD SVG 20010904//EN"
 "http://www.w3.org/TR/2001/REC-SVG-20010904/DTD/svg10.dtd">
<svg version="1.0" xmlns="http://www.w3.org/2000/svg"
 width="500.000000pt" height="501.000000pt" viewBox="0 0 500.000000 501.000000"
 preserveAspectRatio="xMidYMid meet">

<g transform="translate(0.000000,501.000000) scale(0.100000,-0.100000)"
fill="#000000" stroke="none">
<path d="M1008 3898 c-13 -11 -247 -373 -435 -673 -28 -44 -132 -208 -232
-364 -202 -316 -208 -330 -148 -374 17 -14 124 -74 237 -136 218 -118 253
-129 288 -91 11 12 39 52 63 90 24 39 46 70 49 70 3 0 54 -49 114 -109 l109
-109 -53 -85 c-28 -47 -56 -104 -61 -127 -24 -107 42 -229 142 -262 41 -14 43
-16 54 -70 14 -69 53 -130 105 -163 44 -28 123 -49 151 -40 14 5 23 -3 38 -32
42 -83 115 -126 213 -127 67 -1 68 -2 93 -38 34 -50 101 -88 167 -95 72 -7
145 24 198 85 l40 45 242 -94 c220 -85 249 -94 308 -94 105 1 181 51 253 167
16 25 23 28 76 28 117 0 196 46 283 165 42 57 76 90 116 115 37 23 74 58 105
100 45 61 52 66 102 76 104 22 171 77 216 179 26 60 22 151 -10 218 -11 24
-21 46 -21 49 0 5 90 71 262 190 l27 19 42 -63 c61 -92 78 -108 114 -108 32 0
480 237 497 262 4 7 8 28 8 45 0 32 -35 88 -694 1123 -76 118 -145 221 -154
228 -39 30 -73 15 -302 -128 -124 -77 -231 -148 -237 -157 -21 -27 -15 -54 22
-116 19 -32 35 -59 35 -61 0 -7 -111 -56 -125 -56 -8 0 -126 32 -262 72 l-248
71 -255 5 c-140 2 -289 -1 -331 -6 -98 -12 -185 -52 -240 -108 l-43 -44 -112
0 -113 0 -95 46 c-53 25 -96 48 -96 50 0 2 11 22 25 44 27 42 31 70 15 100 -8
16 -176 124 -405 264 -63 37 -109 46 -137 24z m204 -249 c73 -45 139 -87 146
-93 12 -12 -91 -179 -496 -796 -31 -47 -93 -143 -139 -213 -46 -71 -88 -127
-93 -125 -47 17 -279 155 -276 164 3 7 163 261 356 565 194 304 354 559 357
566 3 7 7 13 9 13 1 0 63 -36 136 -81z m2677 8 c25 -39 120 -189 211 -332 277
-432 459 -721 465 -737 4 -10 -34 -36 -136 -92 -78 -43 -145 -74 -149 -69 -9
9 -218 327 -350 532 -48 75 -148 228 -222 342 -74 113 -140 215 -147 226 -10
20 -2 27 132 111 78 50 144 91 147 91 3 0 25 -32 49 -72z m-869 -363 c302 -86
307 -87 426 -30 42 20 78 35 79 34 2 -2 20 -30 41 -63 33 -53 126 -196 378
-583 37 -57 64 -107 62 -111 -12 -18 -327 -232 -339 -229 -6 2 -262 170 -567
373 -305 204 -573 379 -595 389 -31 15 -62 20 -142 20 -93 0 -106 -2 -159 -29
-48 -25 -67 -43 -108 -103 -27 -41 -59 -80 -71 -88 -17 -11 -51 -14 -145 -12
l-122 3 142 200 c156 219 180 249 225 272 55 29 79 31 355 32 l275 1 265 -76z
m-1481 -21 c98 -53 112 -58 188 -63 l82 -5 -139 -193 c-77 -106 -142 -202
-145 -213 -4 -10 0 -31 7 -46 24 -50 43 -54 288 -51 l225 3 52 29 c40 22 65
47 103 102 67 96 79 104 165 104 l70 0 610 -406 c336 -223 620 -418 632 -432
43 -51 23 -146 -37 -177 -61 -32 -75 -26 -426 185 -223 134 -342 200 -361 200
-59 0 -96 -56 -71 -105 13 -24 91 -74 471 -302 86 -52 157 -100 157 -107 0
-24 -70 -85 -110 -97 -60 -18 -91 -5 -325 142 -290 180 -280 176 -329 138 -29
-23 -36 -73 -13 -101 15 -20 472 -307 509 -320 l28 -10 -20 -28 c-30 -43 -102
-74 -151 -66 -25 4 -120 52 -242 121 -110 63 -211 115 -224 115 -59 0 -95 -88
-54 -129 11 -11 84 -56 163 -100 78 -45 149 -85 157 -90 11 -7 10 -15 -9 -45
-24 -40 -65 -66 -104 -66 -14 0 -60 14 -103 31 -43 17 -139 54 -213 81 -74 28
-137 52 -139 54 -2 2 11 31 29 65 26 48 32 72 32 119 0 105 -66 197 -159 222
-41 12 -43 14 -53 65 -15 70 -62 131 -125 163 l-50 25 0 77 c0 69 -3 80 -30
119 -56 80 -157 122 -249 105 -19 -4 -58 -22 -87 -41 l-51 -35 -32 26 c-73 62
-174 73 -264 27 l-53 -27 -111 111 -111 111 58 89 c32 48 89 135 125 193 123
193 321 490 327 490 3 0 54 -26 112 -57z m-177 -1060 c36 -32 23 -71 -69 -208
-81 -119 -91 -130 -122 -133 -43 -4 -81 29 -81 71 0 31 123 234 168 275 28 27
71 25 104 -5z m376 -9 c12 -14 22 -34 22 -46 0 -28 -339 -536 -362 -544 -47
-15 -108 28 -108 76 0 15 18 52 43 86 23 32 97 144 163 249 67 104 132 196
145 203 32 16 69 7 97 -24z m167 -299 c35 -34 31 -64 -19 -136 -24 -35 -76
-116 -116 -179 -40 -63 -79 -121 -88 -127 -9 -7 -30 -13 -48 -13 -37 0 -74 38
-74 76 0 21 230 380 254 396 23 16 67 8 91 -17z m210 -240 c15 -14 25 -36 25
-52 0 -29 -124 -230 -167 -270 -48 -46 -123 -19 -123 43 0 26 17 61 66 137
101 156 111 167 145 167 18 0 39 -9 54 -25z"/>
</g>
</svg>
