<?xml version="1.0" encoding="UTF-8"?>
<!DOCTYPE svg PUBLIC "-//W3C//DTD SVG 1.1//EN" "http://www.w3.org/Graphics/SVG/1.1/DTD/svg11.dtd">
<svg xmlns="http://www.w3.org/2000/svg" version="1.1" width="501px" height="501px" style="shape-rendering:geometricPrecision; text-rendering:geometricPrecision; image-rendering:optimizeQuality; fill-rule:evenodd; clip-rule:evenodd" xmlns:xlink="http://www.w3.org/1999/xlink">
<g><path style="opacity:0.898" fill="#000000" d="M 245.5,-0.5 C 249.833,-0.5 254.167,-0.5 258.5,-0.5C 299.455,8.19431 340.455,17.361 381.5,27C 385.77,28.2704 388.27,31.1037 389,35.5C 389.667,69.1667 389.667,102.833 389,136.5C 384.162,214.748 347.662,272.581 279.5,310C 271.025,314.989 262.025,318.489 252.5,320.5C 248.673,320.392 245.007,319.558 241.5,318C 172.166,287.228 130.666,234.394 117,159.5C 116.667,151.833 116.333,144.167 116,136.5C 115.033,101.128 115.367,65.7943 117,30.5C 120.049,28.0362 123.549,26.5362 127.5,26C 166.936,16.9497 206.269,8.11636 245.5,-0.5 Z M 249.5,20.5 C 288.789,29.0911 328.123,37.4244 367.5,45.5C 367.862,82.5151 367.362,119.515 366,156.5C 353.487,220.752 317.987,267.252 259.5,296C 253.686,298.169 248.019,297.835 242.5,295C 182.546,264.688 147.712,216.188 138,149.5C 136.604,114.852 136.104,80.1857 136.5,45.5C 174.512,38.2442 212.178,29.9108 249.5,20.5 Z"/></g>
<g><path style="opacity:0.894" fill="#000000" d="M 250.5,35.5 C 283.185,42.6718 315.852,49.8384 348.5,57C 350.894,58.9522 352.394,61.4522 353,64.5C 353.667,88.1667 353.667,111.833 353,135.5C 350.877,180.896 333.711,219.396 301.5,251C 287.93,262.564 273.263,272.564 257.5,281C 252.266,281.977 247.266,281.31 242.5,279C 191.007,250.861 161.174,207.694 153,149.5C 152.333,143.5 152.333,137.5 153,131.5C 155.815,125.831 160.315,123.998 166.5,126C 168.624,127.122 170.457,128.622 172,130.5C 175.437,182.506 198.27,223.339 240.5,253C 244.091,255.355 247.924,257.188 252,258.5C 263.2,253.478 273.367,246.812 282.5,238.5C 296.831,224.676 308.664,209.009 318,191.5C 329.199,163.777 333.699,134.944 331.5,105C 331.167,95.1667 330.833,85.3333 330.5,75.5C 304.387,69.3105 278.221,63.3105 252,57.5C 222.032,64.3254 192.032,70.9921 162,77.5C 155.66,76.6585 152.16,72.9919 151.5,66.5C 151.975,61.7063 154.308,58.2063 158.5,56C 189.417,49.7677 220.084,42.9343 250.5,35.5 Z"/></g>
<g><path style="opacity:0.805" fill="#000000" d="M 160.5,89.5 C 170.442,90.3705 174.275,95.7039 172,105.5C 168.723,111.109 163.89,112.942 157.5,111C 150.649,105.279 149.983,98.9453 155.5,92C 157.315,91.2432 158.981,90.4098 160.5,89.5 Z"/></g>
<g><path style="opacity:0.879" fill="#000000" d="M 298.5,99.5 C 312.178,99.5176 316.345,105.851 311,118.5C 306.454,122.714 301.621,126.547 296.5,130C 277.546,148.133 258.212,165.8 238.5,183C 234.667,185.729 230.667,186.062 226.5,184C 215.875,173.715 206.375,162.548 198,150.5C 195.832,137.666 200.998,132.832 213.5,136C 219.375,142.207 224.875,148.707 230,155.5C 231.113,157.329 232.613,158.163 234.5,158C 243.628,147.863 253.628,138.863 264.5,131C 275.729,120.266 287.063,109.766 298.5,99.5 Z"/></g>
<g><path style="opacity:0.892" fill="#000000" d="M 220.5,500.5 C 217.167,500.5 213.833,500.5 210.5,500.5C 208.5,498.329 206.666,495.996 205,493.5C 204.667,467.167 204.333,440.833 204,414.5C 202.468,406.106 199.801,398.106 196,390.5C 181.938,373.371 168.604,355.704 156,337.5C 150.076,330.426 143.576,329.759 136.5,335.5C 134.703,338.279 134.203,341.279 135,344.5C 139.935,352.701 145.601,360.368 152,367.5C 155.493,373.521 155.326,379.355 151.5,385C 147.625,386.52 143.625,386.854 139.5,386C 136.027,382.527 132.527,379.027 129,375.5C 117.749,359.241 106.082,343.241 94,327.5C 92.5921,323.943 91.5921,320.276 91,316.5C 90.6667,284.167 90.3333,251.833 90,219.5C 86.4121,210.793 80.2454,208.293 71.5,212C 69.3485,214.469 67.8485,217.302 67,220.5C 62.6057,259.772 59.2723,299.106 57,338.5C 67.5412,355.577 79.5412,371.577 93,386.5C 109.93,410.425 127.596,433.758 146,456.5C 148,469.5 148,482.5 146,495.5C 144.634,497.362 143.134,499.028 141.5,500.5C 138.167,500.5 134.833,500.5 131.5,500.5C 129.193,499.023 127.36,497.023 126,494.5C 125.952,484.068 125.286,473.735 124,463.5C 97.0916,429.348 70.425,395.014 44,360.5C 34.9624,348.972 31.9624,335.972 35,321.5C 38.14,285.433 41.8067,249.433 46,213.5C 51.1592,197.846 61.9925,189.513 78.5,188.5C 94.5823,189.418 105.416,197.418 111,212.5C 111.333,246.167 111.667,279.833 112,313.5C 113.058,317.283 114.891,320.617 117.5,323.5C 129.143,309.234 143.476,305.734 160.5,313C 165.604,315.804 169.77,319.637 173,324.5C 179.275,334.043 186.275,343.043 194,351.5C 202.723,363.224 211.056,375.224 219,387.5C 222.553,395.491 224.886,403.825 226,412.5C 226.667,439.5 226.667,466.5 226,493.5C 225.062,496.598 223.228,498.931 220.5,500.5 Z"/></g>
<g><path style="opacity:0.907" fill="#000000" d="M 370.5,500.5 C 367.5,500.5 364.5,500.5 361.5,500.5C 359.193,499.023 357.36,497.023 356,494.5C 355.333,482.167 355.333,469.833 356,457.5C 356.667,456.167 357.333,454.833 358,453.5C 387.321,415.832 416.321,377.832 445,339.5C 445.5,337.5 446,335.5 446.5,333.5C 442.601,295.514 438.768,257.514 435,219.5C 431.375,210.772 425.209,208.272 416.5,212C 413.533,214.1 411.7,216.934 411,220.5C 410.667,253.167 410.333,285.833 410,318.5C 408.42,324.992 405.754,330.992 402,336.5C 389.287,352.758 376.454,368.924 363.5,385C 350.322,388.667 345.155,383.834 348,370.5C 353.759,362.652 359.759,354.985 366,347.5C 368.877,336.401 364.711,331.234 353.5,332C 351.333,333.5 349.167,335 347,336.5C 334.333,353.167 321.667,369.833 309,386.5C 302.654,395.533 298.654,405.533 297,416.5C 296.667,442.5 296.333,468.5 296,494.5C 294.64,497.023 292.807,499.023 290.5,500.5C 287.5,500.5 284.5,500.5 281.5,500.5C 278.8,498.954 276.967,496.621 276,493.5C 275.333,467.167 275.333,440.833 276,414.5C 277.5,400.84 281.833,388.174 289,376.5C 304.816,355.688 320.983,335.188 337.5,315C 355.304,305.4 370.804,308.233 384,323.5C 386.442,320.952 388.108,317.952 389,314.5C 389.027,280.453 389.694,246.453 391,212.5C 398.638,193.597 412.471,186.097 432.5,190C 443.974,193.474 451.474,200.974 455,212.5C 460.023,254.085 464.023,295.752 467,337.5C 466.242,344.445 463.908,350.778 460,356.5C 433.14,392.23 405.807,427.563 378,462.5C 376.718,472.067 376.051,481.734 376,491.5C 375.175,495.156 373.342,498.156 370.5,500.5 Z"/></g>
</svg>
