<svg width="17" height="19" viewBox="0 0 17 19" fill="none" xmlns="http://www.w3.org/2000/svg">
<path fill-rule="evenodd" clip-rule="evenodd" d="M3.375 0.583252C1.71815 0.583252 0.375 1.9264 0.375 3.58325V15.4166C0.375 17.0734 1.71815 18.4166 3.375 18.4166H7.70833C8.26062 18.4166 8.70833 17.9689 8.70833 17.4166C8.70833 16.8643 8.26062 16.4166 7.70833 16.4166H3.375C2.82271 16.4166 2.375 15.9689 2.375 15.4166V3.58325C2.375 3.03097 2.82272 2.58325 3.375 2.58325H7.70833C8.26062 2.58325 8.70833 2.13554 8.70833 1.58325C8.70833 1.03097 8.26062 0.583252 7.70833 0.583252H3.375ZM12.2265 4.98173C11.9173 4.67257 11.416 4.67257 11.1069 4.98173C10.7977 5.2909 10.7977 5.79215 11.1069 6.10132L13.7138 8.70825H6.125C5.68777 8.70825 5.33333 9.06269 5.33333 9.49992C5.33333 9.93714 5.68777 10.2916 6.125 10.2916H13.7137L11.1069 12.8984C10.7977 13.2076 10.7977 13.7088 11.1069 14.018C11.416 14.3272 11.9173 14.3272 12.2265 14.018L16.179 10.0655C16.2008 10.0441 16.2213 10.0215 16.2405 9.99783C16.2824 9.94621 16.3168 9.89054 16.3437 9.83228C16.3902 9.73188 16.4163 9.6201 16.4167 9.50226L16.4167 9.49992L12.2265 4.98173ZM12.2265 4.98173L16.1848 8.94007C16.2675 9.02274 16.328 9.11915 16.3665 9.22196C16.3976 9.30482 16.4152 9.39428 16.4166 9.48765L12.2265 4.98173Z" fill="#FA0909"/>
</svg>
