<svg width="12" height="12" viewBox="0 0 12 12" fill="none" xmlns="http://www.w3.org/2000/svg">
<path fill-rule="evenodd" clip-rule="evenodd" d="M2 12C0.895431 12 0 11.1046 0 10V2C0 0.895431 0.895431 0 2 0H10C11.1046 0 12 0.895431 12 2V10C12 11.1046 11.1046 12 10 12H2ZM2 1.71429C1.8422 1.71429 1.71429 1.8422 1.71429 2V3.42857H10.2857V2C10.2857 1.8422 10.1578 1.71429 10 1.71429H2ZM3.42857 5.14286H1.71429V10C1.71429 10.1578 1.8422 10.2857 2 10.2857H3.42857V5.14286ZM5.14286 10.2857V5.14286H10.2857V10C10.2857 10.1578 10.1578 10.2857 10 10.2857H5.14286Z" fill="#837D7D"/>
</svg>
